<svg width="120" height="32" viewBox="0 0 120 32" fill="none" xmlns="http://www.w3.org/2000/svg">
<g clip-path="url(#clip0)">
<path d="M0.657593 31.9999H11.5069C16.6515 31.9999 20.822 27.8294 20.822 22.6849H9.97266C4.82809 22.6849 0.657593 26.8554 0.657593 31.9999Z" fill="#F22BB2"/>
<path d="M1.14282 9.31507V23.0137C6.28739 23.0137 10.4579 18.8432 10.4579 13.6986V0C5.31332 0 1.14282 4.1705 1.14282 9.31507Z" fill="#8C30F5"/>
<path d="M31.3425 0H20.4932C15.3486 0 11.1781 4.1705 11.1781 9.31507H22.0274C27.172 9.31507 31.3425 5.14457 31.3425 0Z" fill="#FE9A22"/>
<path d="M31.3424 22.137V8.43842C26.1978 8.43842 22.0273 12.6089 22.0273 17.7535V31.4521C27.1719 31.4521 31.3424 27.2816 31.3424 22.137Z" fill="#2EC5CE"/>
</g>
<path d="M46.1714 20.4801V8.00005H42.5143V24H51.8857V20.4801H46.1714Z" fill="white"/>
<path d="M61.5677 12.5715V13.6458C60.8134 12.7772 59.6934 12.2515 58.162 12.2515C55.1677 12.2515 52.6991 14.88 52.6991 18.2858C52.6991 21.6915 55.1677 24.3201 58.162 24.3201C59.6934 24.3201 60.8134 23.7943 61.5677 22.9258V24H64.9962V12.5715H61.5677ZM58.8477 21.0743C57.2705 21.0743 56.1277 20 56.1277 18.2858C56.1277 16.5715 57.2705 15.4972 58.8477 15.4972C60.4248 15.4972 61.5677 16.5715 61.5677 18.2858C61.5677 20 60.4248 21.0743 58.8477 21.0743Z" fill="white"/>
<path d="M74.2087 12.2515C72.7002 12.2515 71.5573 12.8 70.9402 13.6458V12.5715H67.5116V24H70.9402V17.76C70.9402 16.1372 71.8087 15.4058 73.0659 15.4058C74.163 15.4058 75.0545 16.0686 75.0545 17.4858V24H78.483V16.9829C78.483 13.8972 76.5173 12.2515 74.2087 12.2515Z" fill="white"/>
<path d="M89.1346 8.00005V13.6458C88.3804 12.7772 87.2604 12.2515 85.7289 12.2515C82.7346 12.2515 80.2661 14.88 80.2661 18.2858C80.2661 21.6915 82.7346 24.3201 85.7289 24.3201C87.2604 24.3201 88.3804 23.7943 89.1346 22.9258V24H92.5632V8.00005H89.1346ZM86.4146 21.0743C84.8375 21.0743 83.6946 20 83.6946 18.2858C83.6946 16.5715 84.8375 15.4972 86.4146 15.4972C87.9918 15.4972 89.1346 16.5715 89.1346 18.2858C89.1346 20 87.9918 21.0743 86.4146 21.0743Z" fill="white"/>
<path d="M96.7928 11.5658C97.9128 11.5658 98.85 10.6286 98.85 9.50862C98.85 8.38862 97.9128 7.45148 96.7928 7.45148C95.6728 7.45148 94.7357 8.38862 94.7357 9.50862C94.7357 10.6286 95.6728 11.5658 96.7928 11.5658ZM95.0786 24H98.5071V12.5715H95.0786V24Z" fill="white"/>
<path d="M107.302 10.9715V7.68005C103.507 7.45148 101.747 9.37148 101.747 12.5715H100.216V15.8629H101.747V24H105.176V15.8629H107.302V12.5715H105.176C105.176 11.2458 106.022 10.8572 107.302 10.9715Z" fill="white"/>
<path d="M116.207 12.5715L114.059 19.5658L111.521 12.5715H107.75L112.299 23.4743C111.796 24.8686 111.041 25.3715 109.441 25.3715V28.5715C112.641 28.7315 114.676 27.2915 115.956 23.6572L119.864 12.5715H116.207Z" fill="white"/>
<defs>
<clipPath id="clip0">
<rect width="32" height="32" fill="white"/>
</clipPath>
</defs>
</svg>
