<svg width="91" height="30" viewBox="0 0 91 30" fill="none" xmlns="http://www.w3.org/2000/svg">
<g clip-path="url(#clip0)">
<path d="M38.8141 15.3848C38.8141 19.549 35.5302 22.6174 31.5 22.6174C27.4699 22.6174 24.186 19.549 24.186 15.3848C24.186 11.1914 27.4699 8.15222 31.5 8.15222C35.5302 8.15222 38.8141 11.1914 38.8141 15.3848ZM35.6123 15.3848C35.6123 12.7827 33.709 11.0022 31.5 11.0022C29.2911 11.0022 27.3878 12.7827 27.3878 15.3848C27.3878 17.9609 29.2911 19.7674 31.5 19.7674C33.709 19.7674 35.6123 17.9577 35.6123 15.3848Z" fill="#EA4335"/>
<path d="M54.5924 15.3848C54.5924 19.549 51.3085 22.6174 47.2784 22.6174C43.2483 22.6174 39.9644 19.549 39.9644 15.3848C39.9644 11.1946 43.2483 8.15222 47.2784 8.15222C51.3085 8.15222 54.5924 11.1914 54.5924 15.3848ZM51.3906 15.3848C51.3906 12.7827 49.4874 11.0022 47.2784 11.0022C45.0694 11.0022 43.1661 12.7827 43.1661 15.3848C43.1661 17.9609 45.0694 19.7674 47.2784 19.7674C49.4874 19.7674 51.3906 17.9577 51.3906 15.3848Z" fill="#FBBC05"/>
<path d="M69.7135 8.58918V21.574C69.7135 26.9153 66.5381 29.0968 62.7841 29.0968C59.2503 29.0968 57.1235 26.7522 56.3214 24.8348L59.109 23.6837C59.6054 24.8609 60.8216 26.25 62.7808 26.25C65.1837 26.25 66.6728 24.7794 66.6728 22.0109V20.9707H66.5611C65.8445 21.8479 64.4638 22.6142 62.7216 22.6142C59.0761 22.6142 55.7363 19.4642 55.7363 15.4109C55.7363 11.3283 59.0761 8.15222 62.7216 8.15222C64.4606 8.15222 65.8412 8.91853 66.5611 9.76961H66.6728V8.59244H69.7135V8.58918ZM66.8997 15.4109C66.8997 12.8642 65.187 11.0022 63.0076 11.0022C60.7986 11.0022 58.9479 12.8642 58.9479 15.4109C58.9479 17.9316 60.7986 19.7674 63.0076 19.7674C65.187 19.7674 66.8997 17.9316 66.8997 15.4109Z" fill="#4285F4"/>
<path d="M74.7263 0.978271V22.1739H71.6035V0.978271H74.7263Z" fill="#34A853"/>
<path d="M86.896 17.7652L89.3812 19.4087C88.5791 20.5859 86.6462 22.6141 83.3064 22.6141C79.1645 22.6141 76.0713 19.4381 76.0713 15.3815C76.0713 11.0804 79.1908 8.14893 82.9481 8.14893C86.7317 8.14893 88.5824 11.1359 89.1872 12.75L89.5192 13.5718L79.7727 17.5761C80.5189 19.0272 81.6793 19.7674 83.3064 19.7674C84.9369 19.7674 86.0677 18.9718 86.896 17.7652ZM79.2467 15.1631L85.762 12.4794C85.4036 11.5761 84.3254 10.9468 83.0566 10.9468C81.4294 10.9468 79.1645 12.3718 79.2467 15.1631Z" fill="#EA4335"/>
<path d="M12.3655 13.5033V10.4348H22.7892C22.8911 10.9696 22.9437 11.6022 22.9437 12.287C22.9437 14.5892 22.3093 17.4359 20.2646 19.4642C18.2759 21.5185 15.7349 22.6142 12.3688 22.6142C6.12967 22.6142 0.883301 17.5729 0.883301 11.3838C0.883301 5.19462 6.12967 0.15332 12.3688 0.15332C15.8203 0.15332 18.2792 1.4968 20.1266 3.24789L17.9439 5.4131C16.6191 4.18049 14.8243 3.2218 12.3655 3.2218C7.80943 3.2218 4.2461 6.86419 4.2461 11.3838C4.2461 15.9033 7.80943 19.5457 12.3655 19.5457C15.3207 19.5457 17.0037 18.3685 18.0819 17.299C18.9563 16.4316 19.5316 15.1925 19.7584 13.5001L12.3655 13.5033Z" fill="#4285F4"/>
</g>
<defs>
<clipPath id="clip0">
<rect width="89.4118" height="30" fill="white" transform="translate(0.764648)"/>
</clipPath>
</defs>
</svg>
