<svg width="116" height="26" viewBox="0 0 116 26" fill="none" xmlns="http://www.w3.org/2000/svg">
<g clip-path="url(#clip0)">
<path d="M41.119 14.8518L40.4346 16.7791H40.3776C40.2635 16.3445 40.0544 15.6831 39.7122 14.8895L36.0432 5.7253H32.4502V20.3314H34.8265V11.3183C34.8265 10.7515 34.8265 10.109 34.8075 9.31542C34.7885 8.91861 34.7505 8.61629 34.7315 8.38954H34.7885C34.9025 8.9564 35.0356 9.3721 35.1307 9.63664L39.5411 20.2936H41.214L45.5865 9.54216C45.6815 9.29652 45.7766 8.80524 45.8716 8.38954H45.9287C45.8716 9.46658 45.8336 10.4302 45.8146 11.016V20.2747H48.343V5.68751H44.8831L41.119 14.8518ZM50.7383 9.80669H53.2097V20.2747H50.7383V9.80669ZM51.993 5.38518C51.5748 5.38518 51.2326 5.53635 50.9474 5.80088C50.6623 6.06542 50.5102 6.40553 50.5102 6.82123C50.5102 7.21803 50.6623 7.55815 50.9474 7.82268C51.2326 8.08722 51.5748 8.21949 51.993 8.21949C52.4112 8.21949 52.7724 8.06832 53.0386 7.82268C53.3237 7.55815 53.4758 7.21803 53.4758 6.82123C53.4758 6.42443 53.3237 6.08431 53.0386 5.80088C52.7914 5.53635 52.4302 5.38518 51.993 5.38518ZM61.9735 9.71222C61.5173 9.61774 61.042 9.56105 60.5858 9.56105C59.4641 9.56105 58.4376 9.80669 57.5821 10.298C56.7266 10.7893 56.0422 11.4695 55.605 12.3198C55.1488 13.189 54.9206 14.1904 54.9206 15.343C54.9206 16.3445 55.1487 17.2326 55.586 18.0451C56.0232 18.8387 56.6316 19.4811 57.449 19.9157C58.2285 20.3503 59.141 20.577 60.1675 20.577C61.3462 20.577 62.3537 20.3314 63.1522 19.8779L63.1712 19.859V17.5916L63.0761 17.6672C62.7149 17.9317 62.2967 18.1584 61.8785 18.2907C61.4412 18.4419 61.042 18.5175 60.6998 18.5175C59.7113 18.5175 58.9318 18.234 58.3805 17.6105C57.8102 17.0058 57.5251 16.1744 57.5251 15.1352C57.5251 14.0581 57.8102 13.2079 58.3996 12.5843C58.9889 11.9608 59.7683 11.6395 60.7188 11.6395C61.5173 11.6395 62.3347 11.9041 63.0761 12.4331L63.1712 12.5087V10.109L63.1522 10.0901C62.829 9.95786 62.4678 9.80669 61.9735 9.71222ZM70.129 9.63664C69.5207 9.63664 68.9504 9.82559 68.4561 10.2224C68.0379 10.5625 67.7527 11.0538 67.5056 11.6395H67.4866V9.80669H65.0152V20.2747H67.4866V14.9273C67.4866 14.0204 67.6767 13.2645 68.0949 12.7166C68.5131 12.1497 69.0454 11.8663 69.6918 11.8663C69.9199 11.8663 70.148 11.923 70.4332 11.9608C70.6994 12.0363 70.8895 12.1119 71.0225 12.2064L71.1176 12.282V9.82559L71.0606 9.80669C70.8895 9.69332 70.5473 9.63664 70.129 9.63664ZM76.8588 9.57995C75.1288 9.57995 73.741 10.0901 72.7715 11.0916C71.783 12.093 71.3077 13.4724 71.3077 15.2108C71.3077 16.8358 71.802 18.1584 72.7525 19.1221C73.703 20.0669 74.9957 20.5581 76.6116 20.5581C78.3036 20.5581 79.6533 20.048 80.6228 19.0276C81.6114 18.0073 82.0867 16.6468 82.0867 14.9651C82.0867 13.3023 81.6304 11.9797 80.6989 11.016C79.8054 10.0523 78.4937 9.57995 76.8588 9.57995ZM78.8359 17.6294C78.3796 18.2151 77.6572 18.4986 76.7637 18.4986C75.8702 18.4986 75.1478 18.2151 74.6345 17.5916C74.1212 17.0058 73.8741 16.1555 73.8741 15.0785C73.8741 13.9637 74.1403 13.1134 74.6345 12.5087C75.1478 11.9041 75.8512 11.6018 76.7447 11.6018C77.6192 11.6018 78.3036 11.8852 78.7978 12.4709C79.2921 13.0567 79.5583 13.907 79.5583 15.0218C79.5202 16.1555 79.3111 17.0436 78.8359 17.6294ZM87.5997 14.1526C86.8203 13.8314 86.326 13.5858 86.0979 13.3779C85.9078 13.189 85.8127 12.9244 85.8127 12.5843C85.8127 12.3009 85.9268 12.0174 86.2119 11.8285C86.4971 11.6395 86.8203 11.5451 87.2955 11.5451C87.7138 11.5451 88.151 11.6206 88.5692 11.734C88.9875 11.8474 89.3677 12.0175 89.6719 12.2442L89.7669 12.3198V10.0145L89.7099 9.99565C89.4247 9.88228 89.0445 9.7689 88.5882 9.67443C88.132 9.59885 87.7138 9.56105 87.3716 9.56105C86.1929 9.56105 85.2234 9.84448 84.463 10.468C83.7025 11.0538 83.3413 11.8474 83.3413 12.7733C83.3413 13.2645 83.4174 13.6991 83.5885 14.0581C83.7596 14.4172 84.0067 14.7573 84.3489 15.0407C84.6911 15.3052 85.1854 15.6076 85.8697 15.891C86.4401 16.1366 86.8773 16.3256 87.1434 16.4768C87.4096 16.6279 87.5807 16.798 87.7138 16.9302C87.8088 17.0814 87.8659 17.2704 87.8659 17.516C87.8659 18.2151 87.3336 18.5552 86.25 18.5552C85.8317 18.5552 85.3945 18.4797 84.8812 18.3096C84.3679 18.1395 83.8927 17.8939 83.4934 17.6105L83.3984 17.5349V19.9346L83.4554 19.9535C83.8166 20.1236 84.2539 20.2369 84.7861 20.3692C85.3184 20.4637 85.7937 20.5393 86.2119 20.5393C87.4856 20.5393 88.5312 20.2558 89.2726 19.6323C90.0331 19.0276 90.4323 18.2529 90.4323 17.2515C90.4323 16.5523 90.2422 15.9288 89.8239 15.4564C89.2726 15.0029 88.5883 14.5305 87.5997 14.1526ZM96.9529 9.57995C95.2229 9.57995 93.8352 10.0901 92.8656 11.0916C91.8961 12.093 91.4018 13.4724 91.4018 15.2108C91.4018 16.8358 91.8961 18.1584 92.8466 19.1221C93.7971 20.0669 95.0898 20.5581 96.7057 20.5581C98.3977 20.5581 99.7474 20.048 100.717 19.0276C101.706 18.0073 102.181 16.6468 102.181 14.9651C102.181 13.3023 101.725 11.9797 100.793 11.016C99.8995 10.0523 98.5878 9.57995 96.9529 9.57995ZM98.911 17.6294C98.4547 18.2151 97.7323 18.4986 96.8388 18.4986C95.9263 18.4986 95.2229 18.2151 94.7096 17.5916C94.1964 17.0058 93.9492 16.1555 93.9492 15.0785C93.9492 13.9637 94.2154 13.1134 94.7096 12.5087C95.2229 11.9041 95.9263 11.6018 96.8198 11.6018C97.6753 11.6018 98.3787 11.8852 98.8729 12.4709C99.3672 13.0567 99.6334 13.907 99.6334 15.0218C99.6334 16.1555 99.3862 17.0436 98.911 17.6294ZM115.393 11.8285V9.80669H112.903V6.70786L112.827 6.72675L110.469 7.42588L110.412 7.44478V9.80669H106.686V8.48402C106.686 7.87937 106.838 7.40699 107.104 7.10466C107.371 6.80233 107.77 6.65117 108.264 6.65117C108.606 6.65117 108.968 6.72675 109.367 6.89681L109.462 6.9535V4.81832L109.405 4.79943C109.063 4.68606 108.606 4.61047 108.017 4.61047C107.276 4.61047 106.629 4.78053 106.04 5.06396C105.451 5.38518 105.013 5.81978 104.69 6.40553C104.367 6.97239 104.196 7.61483 104.196 8.35175V9.80669H102.466V11.8096H104.196V20.2747H106.686V11.8285H110.412V17.2137C110.412 19.4244 111.458 20.5393 113.549 20.5393C113.891 20.5393 114.252 20.4826 114.595 20.4259C114.956 20.3503 115.222 20.2558 115.374 20.1802L115.393 20.1613V18.1395L115.298 18.2151C115.146 18.3096 115.013 18.3852 114.785 18.4419C114.595 18.4986 114.424 18.5175 114.29 18.5175C113.796 18.5175 113.454 18.4041 113.207 18.1206C112.979 17.8561 112.865 17.4215 112.865 16.7791V11.8285H115.393Z" fill="#737373"/>
<path d="M0.588379 0.8125H12.2418V12.3953H0.588379V0.8125Z" fill="#F25022"/>
<path d="M13.4585 0.8125H25.1119V12.3953H13.4585V0.8125Z" fill="#7FBA00"/>
<path d="M0.588379 13.6046H12.2418V25.1875H0.588379V13.6046Z" fill="#00A4EF"/>
<path d="M13.4585 13.6046H25.1119V25.1875H13.4585V13.6046Z" fill="#FFB900"/>
</g>
<defs>
<clipPath id="clip0">
<rect width="114.824" height="24.375" fill="white" transform="translate(0.588379 0.8125)"/>
</clipPath>
</defs>
</svg>
